/* XPM */
static char * config_xpm[] = {
"24 24 3 1",
" 	c None",
".	c #5E5E5E",
"+	c #22B14C",
"                        ",
"                        ",
"                        ",
"                        ",
"                        ",
"     ..   +++++++++     ",
"     ..   +++++++++     ",
"                        ",
"                        ",
"                        ",
"     ..   +++++++++     ",
"     ..   +++++++++     ",
"                        ",
"                        ",
"                        ",
"     ..   +++++++++     ",
"     ..   +++++++++     ",
"                        ",
"                        ",
"                        ",
"                        ",
"                        ",
"                        ",
"                        "};
