/* XPM */
static const char * delete_xpm[] = {
"18 18 36 1",
" 	c None",
".	c #C1C1C1",
"+	c #181818",
"@	c #C4C4C4",
"#	c #2D2D2D",
"$	c #878787",
"%	c #000000",
"&	c #696969",
"*	c #434343",
"=	c #414141",
"-	c #424242",
";	c #505050",
">	c #4B4B4B",
",	c #555555",
"'	c #454545",
")	c #404040",
"!	c #565656",
"~	c #313131",
"{	c #B5B5B5",
"]	c #0D0D0D",
"^	c #BABABA",
"/	c #494949",
"(	c #545454",
"_	c #515151",
":	c #969696",
"<	c #DBDBDB",
"[	c #2B2B2B",
"}	c #353535",
"|	c #979797",
"1	c #2F2F2F",
"2	c #DCDCDC",
"3	c #575757",
"4	c #222222",
"5	c #464646",
"6	c #919191",
"7	c #171717",
"                  ",
"       .+.        ",
"     @.#$%..      ",
"  &*=-*;>,'-);&   ",
"  +           !   ",
"  ~{         {]   ",
"  ^!/((((((((_^   ",
"   !:       <(    ",
"   !:       <(    ",
"   !:  [ }  <(    ",
"   !|  } }  <(    ",
"   !|  } }  <(    ",
"   !|  } }  <(    ",
"   !|  1 }  23    ",
"   !|       <(    ",
"   {456666657{    ",
"    {((((((({     ",
"                  "};
