/* XPM */
static const char * delete_xpm[] = {
"18 18 3 1",
" 	c None",
".	c #C1C1C1",
"+	c #000000",
"                  ",
"        ..        ",
"        ++        ",
"  ++++++++++++++  ",
"  +............+  ",
"  +.          .+  ",
"  +............+  ",
"  ++++++++++++++  ",
"   +.        .+   ",
"   +.  +  +  .+   ",
"   +.  +  +  .+   ",
"   +.  +  +  .+   ",
"   +.  +  +  .+   ",
"   +.  +  +  .+   ",
"   +.        .+   ",
"   +..........+   ",
"   ++++++++++++   ",
"                  "};
