/* XPM */
static char * delete_xpm[] = {
"24 24 27 1",
" 	c None",
".	c #888888",
"+	c #595959",
"@	c #191919",
"#	c #515151",
"$	c #C8C8C8",
"%	c #090909",
"&	c #B8B8B8",
"*	c #B0B0B0",
"=	c #414141",
"-	c #000000",
";	c #D8D8D8",
">	c #C0C0C0",
",	c #989898",
"'	c #A0A0A0",
")	c #313131",
"!	c #808080",
"~	c #D0D0D0",
"{	c #494949",
"]	c #292929",
"^	c #909090",
"/	c #797979",
"(	c #696969",
"_	c #393939",
":	c #A8A8A8",
"<	c #111111",
"[	c #E8E8E8",
"                        ",
"                        ",
"           .            ",
"          +@#           ",
"         $%$%&          ",
"   *=-------------#*    ",
"  ;-.>>>>>>>>>>>>>,%>   ",
"  ')               #!   ",
"  ~-.>>>>>>>>>>>>>,%&   ",
"   *{-------------].    ",
"    ;!           ^;     ",
"    '=  /$   $(  ='     ",
"    '=  ='   '=  ='     ",
"    '=  ='   '=  ='     ",
"    '=  ='   '=  ='     ",
"    '=  ='   '=  ='     ",
"    '=  ='   '=  ='     ",
"    '=  ='   '=  ='     ",
"    '_  #:   *#  ='     ",
"    $%           <>     ",
"     =]'       $=_      ",
"     [{---------{[      ",
"                        ",
"                        "};
