/* XPM */
static const char * down_xpm[] = {
"18 18 2 1",
" 	c None",
".	c #393939",
"                  ",
"      .....       ",
"      .....       ",
"      .....       ",
"      .....       ",
"      .....       ",
"      .....       ",
"      .....       ",
"      .....       ",
" ...............  ",
"  .............   ",
"   ...........    ",
"    .........     ",
"     .......      ",
"      .....       ",
"       ...        ",
"        .         ",
"                  "};
