/* XPM */
static const char * file_xpm[] = {
"24 24 3 1",
" 	c None",
".	c #3F48CC",
"+	c #22B14C",
"                        ",
"                        ",
"                        ",
"    ................    ",
"    ................    ",
"    ..            ..    ",
"    ..            ..    ",
"    ..            ..    ",
"    ..  ++++++++  ..    ",
"    ..            ..    ",
"    ..            ..    ",
"    ..  ++++++++  ..    ",
"    ..            ..    ",
"    ..            ..    ",
"    ..  ++++++++  ..    ",
"    ..            ..    ",
"    ..            ..    ",
"    ..            ..    ",
"    ................    ",
"    ................    ",
"                        ",
"                        ",
"                        ",
"                        "};
