/* XPM */
static const char * folder_xpm[] = {
"24 24 3 1",
" 	c None",
".	c #3F48CC",
"+	c #93F013",
"                        ",
"                        ",
"                        ",
"                        ",
"   ..........           ",
"   ..........           ",
"   ..+++++++.........   ",
"   ..+++++++.........   ",
"   ..++++++++++++++..   ",
"   ..+++++++.........   ",
"   ..................   ",
"   .........+++++++..   ",
"   ..++++++++++++++..   ",
"   ..++++++++++++++..   ",
"   ..++++++++++++++..   ",
"   ..++++++++++++++..   ",
"   ..++++++++++++++..   ",
"   ..++++++++++++++..   ",
"   ..++++++++++++++..   ",
"   ..................   ",
"   ..................   ",
"                        ",
"                        ",
"                        "};
