/* XPM */
static const char * host_xpm[] = {
"24 24 25 1",
" 	c None",
".	c #080F12",
"+	c #151D1F",
"@	c #0C1316",
"#	c #EFE4B0",
"$	c #171C20",
"%	c #171D20",
"&	c #070D10",
"*	c #000000",
"=	c #0B1114",
"-	c #FFFFFF",
";	c #0B1113",
">	c #0B1215",
",	c #0B1214",
"'	c #0A1113",
")	c #0A1114",
"!	c #070E11",
"~	c #161C1F",
"{	c #161D20",
"]	c #11181B",
"^	c #050C10",
"/	c #0A1014",
"(	c #091013",
"_	c #050C0F",
":	c #11171B",
"                        ",
"                        ",
"                        ",
"                        ",
"     ..+.@@@@.+..       ",
"     .##########.       ",
"     $##########%       ",
"     &##******##&       ",
"     =##*----*##;       ",
"     =##******##;       ",
"     >##########;       ",
"     ,##&&&&&&##;       ",
"     ,##&----&##'       ",
"     ,##&&&&&&##)       ",
"     ,##########)       ",
"     .##########.       ",
"     ,##########)       ",
"     !##########&       ",
"     ~###....###{       ",
"     .##########.       ",
"     ..]^/((/_:..       ",
"                        ",
"                        ",
"                        "};
