/* XPM */
static const char * rename_xpm[] = {
"24 24 14 1",
" 	c None",
".	c #000000",
"+	c #3BA4DB",
"@	c #2290D1",
"#	c #3498D4",
"$	c #3398D4",
"%	c #2391D1",
"&	c #3497D0",
"*	c #479FD4",
"=	c #469FD4",
"-	c #3497D1",
";	c #50A4D6",
">	c #5DABDA",
",	c #5CABDA",
"                        ",
"                        ",
"                        ",
"          ....          ",
"          ....          ",
"           ..           ",
"  +++++++++..+++++++++  ",
"  +++++++++..+++++++++  ",
"  ++       ..       ++  ",
"  ++ @#$#% ..       ++  ",
"  ++ &*=*- ..       ++  ",
"  ++ ;>,>; ..       ++  ",
"  ++ ;>,>; ..       ++  ",
"  ++       ..       ++  ",
"  +++++++++..+++++++++  ",
"  +++++++++..+++++++++  ",
"           ..           ",
"          ....          ",
"          ....          ",
"                        ",
"                        ",
"                        ",
"                        ",
"                        "};
