/* XPM */
static const char * aaaaaaaa_xpm[] = {
"32 32 4 1",
" 	c None",
".	c #020202",
"+	c #010101",
"@	c #020201",
"                                ",
"                                ",
"    .++++++++++++++++++++++.    ",
"   ++..+++ ++++++++++++++++++   ",
"  .++  .+   +++++++++++++++++.  ",
"  +++  .+   ++++++++++++++++++  ",
"  ++++++++++++++++++++++++++++  ",
"  ++++@...@.......@@@@@@@@++++  ",
"  +++                      +++  ",
"  +++                      +++  ",
"  +++                      +++  ",
"  +++                      +++  ",
"  +++                      +++  ",
"  +++                +     +++  ",
"  +++               +++     @+  ",
"  +++           +  .+++@  +  @  ",
"  +++          +++++++++++++    ",
"  +++           ++++. .++++. @  ",
"  +++           +++     .++  +  ",
"  +++          .++  .++  +++    ",
"  +++         +++. .++++  +++   ",
"  +++        ++++  +++++  ++++  ",
"  +++         +++. +++++  +++@  ",
"  +++          @++  +++  @++    ",
"  +++@.         ++.      ++     ",
"   +++++++++++  ++++   @+++.    ",
"    ++++++++++ +++++++++++++    ",
"                +. +++++ .+.    ",
"                    +++         ",
"                     +@         ",
"                                ",
"                                "};
