/* XPM */
static const char * sync_xpm[] = {
"20 20 3 1",
" 	c None",
".	c #0E8CCE",
"+	c #10A510",
"                    ",
"                    ",
"                    ",
"                    ",
"                    ",
"    ....      ++    ",
"    ....     ++++   ",
"    ....    ++++++  ",
"    ....   ++++++++ ",
"    ....     ++++   ",
"    ....     ++++   ",
"    ....     ++++   ",
"  ........   ++++   ",
"   ......    ++++   ",
"    ....     ++++   ",
"     ..      ++++   ",
"                    ",
"                    ",
"                    ",
"                    "};
