/* XPM */
static const char * up_xpm[] = {
"24 24 2 1",
" 	c None",
".	c #00A2E8",
"                        ",
"                        ",
"                        ",
"            .           ",
"           ...          ",
"          .....         ",
"         .......        ",
"        .........       ",
"       ...........      ",
"      .............     ",
"     ...............    ",
"          .....         ",
"          .....         ",
"          .....         ",
"          .....         ",
"          .....         ",
"          .....         ",
"          .....         ",
"          .....         ",
"          .....         ",
"                        ",
"                        ",
"                        ",
"                        "};
